<svg xmlns="http://www.w3.org/2000/svg" width="900" height="520">
<rect width="100%" height="100%" fill="#f8f9fb"/>
<text x="450.0" y="32" text-anchor="middle" font-family="sans-serif" font-size="22" fill="#1f2937">Speedup vs k</text>
<line x1="90" y1="440" x2="870" y2="440" stroke="#111827" stroke-width="2"/>
<line x1="90" y1="440" x2="90" y2="60" stroke="#111827" stroke-width="2"/>
<line x1="90.0" y1="440" x2="90.0" y2="446" stroke="#111827"/>
<text x="90.0" y="464" text-anchor="middle" font-family="sans-serif" font-size="12" fill="#111827">1</text>
<line x1="160.9090909090909" y1="440" x2="160.9090909090909" y2="446" stroke="#111827"/>
<text x="160.9090909090909" y="464" text-anchor="middle" font-family="sans-serif" font-size="12" fill="#111827">2</text>
<line x1="231.8181818181818" y1="440" x2="231.8181818181818" y2="446" stroke="#111827"/>
<text x="231.8181818181818" y="464" text-anchor="middle" font-family="sans-serif" font-size="12" fill="#111827">3</text>
<line x1="302.72727272727275" y1="440" x2="302.72727272727275" y2="446" stroke="#111827"/>
<text x="302.72727272727275" y="464" text-anchor="middle" font-family="sans-serif" font-size="12" fill="#111827">4</text>
<line x1="373.6363636363636" y1="440" x2="373.6363636363636" y2="446" stroke="#111827"/>
<text x="373.6363636363636" y="464" text-anchor="middle" font-family="sans-serif" font-size="12" fill="#111827">5</text>
<line x1="444.54545454545456" y1="440" x2="444.54545454545456" y2="446" stroke="#111827"/>
<text x="444.54545454545456" y="464" text-anchor="middle" font-family="sans-serif" font-size="12" fill="#111827">6</text>
<line x1="586.3636363636364" y1="440" x2="586.3636363636364" y2="446" stroke="#111827"/>
<text x="586.3636363636364" y="464" text-anchor="middle" font-family="sans-serif" font-size="12" fill="#111827">8</text>
<line x1="728.1818181818182" y1="440" x2="728.1818181818182" y2="446" stroke="#111827"/>
<text x="728.1818181818182" y="464" text-anchor="middle" font-family="sans-serif" font-size="12" fill="#111827">10</text>
<line x1="870.0" y1="440" x2="870.0" y2="446" stroke="#111827"/>
<text x="870.0" y="464" text-anchor="middle" font-family="sans-serif" font-size="12" fill="#111827">12</text>
<line x1="84" y1="440.0" x2="90" y2="440.0" stroke="#111827"/>
<line x1="90" y1="440.0" x2="870" y2="440.0" stroke="#e5e7eb"/>
<text x="80" y="444.0" text-anchor="end" font-family="sans-serif" font-size="12" fill="#111827">0.00</text>
<line x1="84" y1="376.6666666666667" x2="90" y2="376.6666666666667" stroke="#111827"/>
<line x1="90" y1="376.6666666666667" x2="870" y2="376.6666666666667" stroke="#e5e7eb"/>
<text x="80" y="380.6666666666667" text-anchor="end" font-family="sans-serif" font-size="12" fill="#111827">2.20</text>
<line x1="84" y1="313.33333333333337" x2="90" y2="313.33333333333337" stroke="#111827"/>
<line x1="90" y1="313.33333333333337" x2="870" y2="313.33333333333337" stroke="#e5e7eb"/>
<text x="80" y="317.33333333333337" text-anchor="end" font-family="sans-serif" font-size="12" fill="#111827">4.40</text>
<line x1="84" y1="250.0" x2="90" y2="250.0" stroke="#111827"/>
<line x1="90" y1="250.0" x2="870" y2="250.0" stroke="#e5e7eb"/>
<text x="80" y="254.0" text-anchor="end" font-family="sans-serif" font-size="12" fill="#111827">6.60</text>
<line x1="84" y1="186.66666666666669" x2="90" y2="186.66666666666669" stroke="#111827"/>
<line x1="90" y1="186.66666666666669" x2="870" y2="186.66666666666669" stroke="#e5e7eb"/>
<text x="80" y="190.66666666666669" text-anchor="end" font-family="sans-serif" font-size="12" fill="#111827">8.80</text>
<line x1="84" y1="123.33333333333331" x2="90" y2="123.33333333333331" stroke="#111827"/>
<line x1="90" y1="123.33333333333331" x2="870" y2="123.33333333333331" stroke="#e5e7eb"/>
<text x="80" y="127.33333333333331" text-anchor="end" font-family="sans-serif" font-size="12" fill="#111827">11.00</text>
<line x1="84" y1="60.0" x2="90" y2="60.0" stroke="#111827"/>
<line x1="90" y1="60.0" x2="870" y2="60.0" stroke="#e5e7eb"/>
<text x="80" y="64.0" text-anchor="end" font-family="sans-serif" font-size="12" fill="#111827">13.20</text>
<text x="450.0" y="498" text-anchor="middle" font-family="sans-serif" font-size="14" fill="#111827">Numero de procesos (k)</text>
<text x="22" y="260.0" text-anchor="middle" transform="rotate(-90 22 260.0)" font-family="sans-serif" font-size="14" fill="#111827">Speedup</text>
<line x1="90.0" y1="411.21212121212125" x2="870.0" y2="94.54545454545456" stroke="#4b5563" stroke-width="2" stroke-dasharray="8,6"/>
<polyline fill="none" stroke="#0f4c5c" stroke-width="3" points="90.0,411.7891742424242 160.9090909090909,395.71900303030304 231.8181818181818,375.26616515151517 302.72727272727275,366.8981909090909 373.6363636363636,365.8288651515152 444.54545454545456,344.8748303030303 586.3636363636364,348.59324545454547 728.1818181818182,347.19432727272726 870.0,346.1264696969697"/>
<circle cx="90.0" cy="411.7891742424242" r="3.5" fill="#0f4c5c"/>
<circle cx="160.9090909090909" cy="395.71900303030304" r="3.5" fill="#0f4c5c"/>
<circle cx="231.8181818181818" cy="375.26616515151517" r="3.5" fill="#0f4c5c"/>
<circle cx="302.72727272727275" cy="366.8981909090909" r="3.5" fill="#0f4c5c"/>
<circle cx="373.6363636363636" cy="365.8288651515152" r="3.5" fill="#0f4c5c"/>
<circle cx="444.54545454545456" cy="344.8748303030303" r="3.5" fill="#0f4c5c"/>
<circle cx="586.3636363636364" cy="348.59324545454547" r="3.5" fill="#0f4c5c"/>
<circle cx="728.1818181818182" cy="347.19432727272726" r="3.5" fill="#0f4c5c"/>
<circle cx="870.0" cy="346.1264696969697" r="3.5" fill="#0f4c5c"/>
<line x1="650" y1="70" x2="672" y2="70" stroke="#0f4c5c" stroke-width="3"/>
<text x="678" y="74" font-family="sans-serif" font-size="12" fill="#111827">N=600</text>
<polyline fill="none" stroke="#e36414" stroke-width="3" points="90.0,413.5640333333333 160.9090909090909,388.17738484848485 231.8181818181818,372.4248590909091 302.72727272727275,352.241043939394 373.6363636363636,350.48469545454543 444.54545454545456,351.3237757575758 728.1818181818182,366.1089424242424 870.0,372.16893484848487"/>
<circle cx="90.0" cy="413.5640333333333" r="3.5" fill="#e36414"/>
<circle cx="160.9090909090909" cy="388.17738484848485" r="3.5" fill="#e36414"/>
<circle cx="231.8181818181818" cy="372.4248590909091" r="3.5" fill="#e36414"/>
<circle cx="302.72727272727275" cy="352.241043939394" r="3.5" fill="#e36414"/>
<circle cx="373.6363636363636" cy="350.48469545454543" r="3.5" fill="#e36414"/>
<circle cx="444.54545454545456" cy="351.3237757575758" r="3.5" fill="#e36414"/>
<circle cx="728.1818181818182" cy="366.1089424242424" r="3.5" fill="#e36414"/>
<circle cx="870.0" cy="372.16893484848487" r="3.5" fill="#e36414"/>
<line x1="650" y1="92" x2="672" y2="92" stroke="#e36414" stroke-width="3"/>
<text x="678" y="96" font-family="sans-serif" font-size="12" fill="#111827">N=900</text>
<polyline fill="none" stroke="#6a994e" stroke-width="3" points="90.0,411.97672727272726 160.9090909090909,382.94415151515153 231.8181818181818,367.4138681818182 302.72727272727275,361.82481666666666 373.6363636363636,368.2372590909091 444.54545454545456,372.05818787878786 586.3636363636364,390.97896363636363 728.1818181818182,387.98560000000003 870.0,386.2341166666667"/>
<circle cx="90.0" cy="411.97672727272726" r="3.5" fill="#6a994e"/>
<circle cx="160.9090909090909" cy="382.94415151515153" r="3.5" fill="#6a994e"/>
<circle cx="231.8181818181818" cy="367.4138681818182" r="3.5" fill="#6a994e"/>
<circle cx="302.72727272727275" cy="361.82481666666666" r="3.5" fill="#6a994e"/>
<circle cx="373.6363636363636" cy="368.2372590909091" r="3.5" fill="#6a994e"/>
<circle cx="444.54545454545456" cy="372.05818787878786" r="3.5" fill="#6a994e"/>
<circle cx="586.3636363636364" cy="390.97896363636363" r="3.5" fill="#6a994e"/>
<circle cx="728.1818181818182" cy="387.98560000000003" r="3.5" fill="#6a994e"/>
<circle cx="870.0" cy="386.2341166666667" r="3.5" fill="#6a994e"/>
<line x1="650" y1="114" x2="672" y2="114" stroke="#6a994e" stroke-width="3"/>
<text x="678" y="118" font-family="sans-serif" font-size="12" fill="#111827">N=1200</text>
</svg>