<svg xmlns="http://www.w3.org/2000/svg" width="900" height="520">
<rect width="100%" height="100%" fill="#f8f9fb"/>
<text x="450.0" y="32" text-anchor="middle" font-family="sans-serif" font-size="22" fill="#1f2937">Tiempo Paralelo Promedio vs k</text>
<line x1="90" y1="440" x2="870" y2="440" stroke="#111827" stroke-width="2"/>
<line x1="90" y1="440" x2="90" y2="60" stroke="#111827" stroke-width="2"/>
<line x1="90.0" y1="440" x2="90.0" y2="446" stroke="#111827"/>
<text x="90.0" y="464" text-anchor="middle" font-family="sans-serif" font-size="12" fill="#111827">3</text>
<line x1="402.0" y1="440" x2="402.0" y2="446" stroke="#111827"/>
<text x="402.0" y="464" text-anchor="middle" font-family="sans-serif" font-size="12" fill="#111827">5</text>
<line x1="558.0" y1="440" x2="558.0" y2="446" stroke="#111827"/>
<text x="558.0" y="464" text-anchor="middle" font-family="sans-serif" font-size="12" fill="#111827">6</text>
<line x1="870.0" y1="440" x2="870.0" y2="446" stroke="#111827"/>
<text x="870.0" y="464" text-anchor="middle" font-family="sans-serif" font-size="12" fill="#111827">8</text>
<line x1="84" y1="440.0" x2="90" y2="440.0" stroke="#111827"/>
<line x1="90" y1="440.0" x2="870" y2="440.0" stroke="#e5e7eb"/>
<text x="80" y="444.0" text-anchor="end" font-family="sans-serif" font-size="12" fill="#111827">0.00</text>
<line x1="84" y1="376.6666666666667" x2="90" y2="376.6666666666667" stroke="#111827"/>
<line x1="90" y1="376.6666666666667" x2="870" y2="376.6666666666667" stroke="#e5e7eb"/>
<text x="80" y="380.6666666666667" text-anchor="end" font-family="sans-serif" font-size="12" fill="#111827">2.31</text>
<line x1="84" y1="313.33333333333337" x2="90" y2="313.33333333333337" stroke="#111827"/>
<line x1="90" y1="313.33333333333337" x2="870" y2="313.33333333333337" stroke="#e5e7eb"/>
<text x="80" y="317.33333333333337" text-anchor="end" font-family="sans-serif" font-size="12" fill="#111827">4.62</text>
<line x1="84" y1="250.0" x2="90" y2="250.0" stroke="#111827"/>
<line x1="90" y1="250.0" x2="870" y2="250.0" stroke="#e5e7eb"/>
<text x="80" y="254.0" text-anchor="end" font-family="sans-serif" font-size="12" fill="#111827">6.94</text>
<line x1="84" y1="186.66666666666669" x2="90" y2="186.66666666666669" stroke="#111827"/>
<line x1="90" y1="186.66666666666669" x2="870" y2="186.66666666666669" stroke="#e5e7eb"/>
<text x="80" y="190.66666666666669" text-anchor="end" font-family="sans-serif" font-size="12" fill="#111827">9.25</text>
<line x1="84" y1="123.33333333333331" x2="90" y2="123.33333333333331" stroke="#111827"/>
<line x1="90" y1="123.33333333333331" x2="870" y2="123.33333333333331" stroke="#e5e7eb"/>
<text x="80" y="127.33333333333331" text-anchor="end" font-family="sans-serif" font-size="12" fill="#111827">11.56</text>
<line x1="84" y1="60.0" x2="90" y2="60.0" stroke="#111827"/>
<line x1="90" y1="60.0" x2="870" y2="60.0" stroke="#e5e7eb"/>
<text x="80" y="64.0" text-anchor="end" font-family="sans-serif" font-size="12" fill="#111827">13.87</text>
<text x="450.0" y="498" text-anchor="middle" font-family="sans-serif" font-size="14" fill="#111827">Numero de procesos (k)</text>
<text x="22" y="260.0" text-anchor="middle" transform="rotate(-90 22 260.0)" font-family="sans-serif" font-size="14" fill="#111827">Tiempo paralelo promedio (s)</text>
<polyline fill="none" stroke="#0f4c5c" stroke-width="3" points="402.0,415.5790399434837 870.0,415.3735915975231"/>
<circle cx="402.0" cy="415.5790399434837" r="3.5" fill="#0f4c5c"/>
<circle cx="870.0" cy="415.3735915975231" r="3.5" fill="#0f4c5c"/>
<line x1="650" y1="70" x2="672" y2="70" stroke="#0f4c5c" stroke-width="3"/>
<text x="678" y="74" font-family="sans-serif" font-size="12" fill="#111827">N=1000</text>
<polyline fill="none" stroke="#e36414" stroke-width="3" points="90.0,316.2927026189258 402.0,329.441396760404 558.0,328.37306536140886"/>
<circle cx="90.0" cy="316.2927026189258" r="3.5" fill="#e36414"/>
<circle cx="402.0" cy="329.441396760404" r="3.5" fill="#e36414"/>
<circle cx="558.0" cy="328.37306536140886" r="3.5" fill="#e36414"/>
<line x1="650" y1="92" x2="672" y2="92" stroke="#e36414" stroke-width="3"/>
<text x="678" y="96" font-family="sans-serif" font-size="12" fill="#111827">N=1500</text>
<polyline fill="none" stroke="#6a994e" stroke-width="3" points="90.0,94.54545454545456 402.0,162.82278818635973 558.0,173.12259859718432 870.0,177.3411379675752"/>
<circle cx="90.0" cy="94.54545454545456" r="3.5" fill="#6a994e"/>
<circle cx="402.0" cy="162.82278818635973" r="3.5" fill="#6a994e"/>
<circle cx="558.0" cy="173.12259859718432" r="3.5" fill="#6a994e"/>
<circle cx="870.0" cy="177.3411379675752" r="3.5" fill="#6a994e"/>
<line x1="650" y1="114" x2="672" y2="114" stroke="#6a994e" stroke-width="3"/>
<text x="678" y="118" font-family="sans-serif" font-size="12" fill="#111827">N=1800</text>
</svg>